Coordinates
version=1
nRows=12
nColumns=19
inDegrees=yes

Units are S.I. units (second, meters, Newtons, ...)
If the header above contains a line with 'inDegrees', this indicates whether rotational values are in degrees (yes) or radians (no).

endheader
time	pelvis_tilt	pelvis_list	pelvis_rotation	pelvis_tx	pelvis_ty	pelvis_tz	hip_flexion_r	hip_adduction_r	hip_rotation_r	knee_angle_r	knee_angle_r_beta	ankle_angle_r	hip_flexion_l	hip_adduction_l	hip_rotation_l	knee_angle_l	knee_angle_l_beta	ankle_angle_l
     14.94666667	    -10.95883385	     -1.96567465	     -4.47425702	      2.20703062	      1.06106866	      1.02707004	     35.09765932	      3.74502514	    -15.28019318	     16.19812130	      0.28271055	     -2.53664266	     -6.93915518	    -11.23928669	    -13.24183885	     76.29780199	      1.33164786	    -15.61140074
     14.95333333	    -11.15363603	     -2.20875322	     -4.66527981	      2.20597622	      1.05575515	      1.02733221	     35.34601440	      3.72008064	    -16.04762595	     18.41649195	      0.32142842	     -1.84681221	     -5.17047740	    -11.73237822	    -12.79215859	     80.31609104	      1.40178023	    -15.23965386
     14.96000000	    -10.62180810	     -2.76879742	     -5.08083985	      2.20511991	      1.05115212	      1.02780095	     34.75133964	      4.05426394	    -16.60085309	     20.87381587	      0.36431681	     -0.77801512	     -4.35102947	    -12.60009406	    -12.80978955	     84.05247510	      1.46699243	    -14.80709831
     14.96666667	    -11.55738092	     -2.70088833	     -5.15685397	      2.20341439	      1.04441873	      1.02760016	     36.03669180	      3.56273225	    -17.16656427	     24.10948259	      0.42078985	      0.59747950	     -1.38367775	    -12.73356127	    -12.01265643	     88.02692397	      1.53635965	    -14.26663464
     14.97333333	    -11.88091044	     -2.83875909	     -5.37006745	      2.20184216	      1.03843342	      1.02753656	     36.52560837	      3.35851330	    -17.37490045	     27.31101532	      0.47666714	      2.40617074	      0.84794896	    -13.08445293	    -11.50283094	     91.70136291	      1.60049071	    -13.71534656
     14.98000000	    -12.33551225	     -2.88910581	     -5.60431646	      2.20003504	      1.03231448	      1.02746597	     37.10703816	      3.15159479	    -17.22033920	     30.54878822	      0.53317694	      4.52131504	      3.35187610	    -13.33916812	    -10.98047782	     95.22876914	      1.66205556	    -13.08487816
     14.98666667	    -12.03497488	     -3.24238702	     -5.87734232	      2.19844577	      1.02747052	      1.02760175	     36.60179629	      3.30197504	    -16.94155967	     33.43663191	      0.58357932	      7.00835232	      4.98062149	    -13.98342864	    -10.64795102	     98.42875162	      1.71790579	    -12.36855489
     14.99333333	    -13.38186651	     -2.73455104	     -5.92481189	      2.19566679	      1.02069239	      1.02731273	     38.07199201	      2.68811861	    -16.16955986	     36.57861674	      0.63841730	      9.47813356	      9.00850628	    -13.52708897	     -9.71900206	    101.69665484	      1.77494147	    -11.80081313
     15.00000000	    -13.93754064	     -2.56835636	     -5.96932677	      2.19314662	      1.01555772	      1.02724733	     38.31900905	      2.44506970	    -15.44463099	     39.13938561	      0.68311115	     12.11854143	     12.13080329	    -13.48967905	     -8.97417784	    104.57114422	      1.82511077	    -11.15889209
     15.00666667	    -14.56221078	     -2.37869915	     -5.94772540	      2.19043724	      1.01098249	      1.02728247	     38.40222728	      2.22010353	    -14.70024538	     41.27809267	      0.72043863	     14.70233475	     15.48706127	    -13.41875271	     -8.18434723	    107.16013594	      1.87029720	    -10.53527853
     15.01333333	    -15.12965562	     -2.20949248	     -5.80485107	      2.18767921	      1.00726383	      1.02727487	     38.14114153	      1.97810412	    -14.06531202	     42.93239208	      0.74931160	     17.16181165	     18.92460808	    -13.29747165	     -7.31054326	    109.41433315	      1.90964036	     -9.93136473
     15.02000000	    -15.57410676	     -2.10529054	     -5.51695828	      2.18497544	      1.00458302	      1.02720318	     37.43190298	      1.71127842	    -13.66133398	     44.05737425	      0.76894624	     19.39819165	     22.34937101	    -13.15266273	     -6.34448339	    111.29669517	      1.94249378	     -9.36240715
